<?xml version="1.0" standalone="no"?><!DOCTYPE svg PUBLIC "-//W3C//DTD SVG 1.1//EN" "http://www.w3.org/Graphics/SVG/1.1/DTD/svg11.dtd"><svg t="1722386803717" class="icon" viewBox="0 0 1024 1024" version="1.1" xmlns="http://www.w3.org/2000/svg" p-id="14447" xmlns:xlink="http://www.w3.org/1999/xlink" width="512" height="512"><path d="M185.728 740.394667l-29.397333-116.778667v126.506667c0 6.997333-1.578667 12.245333-4.693334 15.786666a15.872 15.872 0 0 1-12.416 5.205334 15.872 15.872 0 0 1-12.245333-5.162667c-3.2-3.456-4.778667-8.746667-4.778667-15.786667v-145.066666c0-7.978667 2.133333-13.354667 6.272-16.170667a29.909333 29.909333 0 0 1 16.853334-4.181333h11.52c6.912 0 11.946667 0.64 15.061333 1.877333 3.114667 1.28 5.418667 3.498667 6.912 6.741333 1.536 3.242667 3.242667 8.533333 5.12 15.872l26.666667 100.394667 26.624-100.394667c1.877333-7.338667 3.626667-12.629333 5.12-15.872a12.629333 12.629333 0 0 1 6.912-6.741333c3.157333-1.28 8.149333-1.877333 15.061333-1.877333h11.52c7.082667 0 12.714667 1.408 16.853333 4.181333 4.181333 2.816 6.272 8.192 6.272 16.213333v144.981334c0 6.997333-1.578667 12.245333-4.693333 15.786666a16 16 0 0 1-12.544 5.205334 15.616 15.616 0 0 1-12.16-5.248c-3.157333-3.498667-4.736-8.746667-4.736-15.744v-126.506667l-29.354667 116.778667a236.117333 236.117333 0 0 1-4.693333 16.64 23.04 23.04 0 0 1-6.698667 9.728 19.498667 19.498667 0 0 1-13.482666 4.352 20.352 20.352 0 0 1-11.008-2.816 20.266667 20.266667 0 0 1-6.997334-7.168 41.045333 41.045333 0 0 1-3.968-9.685334l-2.901333-11.093333zM417.706667 581.632c18.986667 0 35.328 3.84 48.938666 11.52 13.653333 7.722667 23.936 18.688 30.933334 32.896 6.997333 14.208 10.496 30.890667 10.496 50.090667 0 14.165333-1.92 27.008-5.76 38.613333-3.84 11.562667-9.557333 21.632-17.237334 30.122667-7.68 8.533333-17.066667 15.018667-28.245333 19.498666a102.016 102.016 0 0 1-38.4 6.741334 101.12 101.12 0 0 1-38.485333-6.912 76.373333 76.373333 0 0 1-28.373334-19.584 83.541333 83.541333 0 0 1-17.194666-30.378667 122.624 122.624 0 0 1-5.802667-38.4c0-14.08 2.048-26.965333 6.058667-38.698667 4.053333-11.776 9.898667-21.76 17.578666-30.037333a75.946667 75.946667 0 0 1 27.989334-18.901333c11.008-4.394667 23.466667-6.570667 37.504-6.570667z m52.736 94.250667c0-13.44-2.133333-25.045333-6.485334-34.901334a48.512 48.512 0 0 0-18.56-22.314666 51.029333 51.029333 0 0 0-27.690666-7.552c-7.424 0-14.250667 1.408-20.565334 4.181333-6.272 2.816-11.690667 6.869333-16.213333 12.202667-4.565333 5.333333-8.149333 12.16-10.794667 20.437333a92.373333 92.373333 0 0 0-3.925333 27.946667c0 10.410667 1.28 19.84 3.925333 28.245333s6.357333 15.36 11.136 20.906667a46.72 46.72 0 0 0 36.949334 16.597333c9.472 0 18.218667-2.389333 26.197333-7.125333 7.936-4.736 14.250667-12.074667 18.986667-22.016 4.693333-9.898667 7.04-22.101333 7.04-36.608zM695.978667 710.144c0 5.802667-1.450667 12.117333-4.352 18.901333a69.205333 69.205333 0 0 1-37.205334 35.925334 84.906667 84.906667 0 0 1-33.450666 6.144c-9.685333 0-18.474667-0.896-26.368-2.730667a74.069333 74.069333 0 0 1-21.589334-8.533333c-6.442667-3.925333-12.373333-9.002667-17.792-15.36a91.008 91.008 0 0 1-12.373333-19.285334 100.693333 100.693333 0 0 1-7.68-22.826666c-1.706667-8.106667-2.56-16.64-2.56-25.770667 0-14.72 2.133333-27.946667 6.4-39.594667 4.266667-11.690667 10.453333-21.674667 18.432-29.952 8.021333-8.277333 17.408-14.592 28.16-18.944 10.752-4.309333 22.186667-6.485333 34.346667-6.485333 14.848 0 28.074667 2.986667 39.637333 8.874667 11.562667 5.930667 20.48 13.226667 26.624 21.930666 6.186667 8.704 9.258667 16.938667 9.258667 24.704 0 4.266667-1.493333 7.978667-4.522667 11.221334a14.250667 14.250667 0 0 1-10.88 4.906666c-4.693333 0-8.277333-1.152-10.666667-3.413333a46.762667 46.762667 0 0 1-7.936-11.605333 55.893333 55.893333 0 0 0-17.066666-20.394667 41.642667 41.642667 0 0 0-24.192-6.741333c-15.232 0-27.392 5.802667-36.437334 17.365333-9.045333 11.605333-13.568 28.074667-13.568 49.408 0 14.250667 2.005333 26.112 5.973334 35.541333 4.053333 9.472 9.685333 16.512 17.066666 21.205334a46.933333 46.933333 0 0 0 25.728 6.997333c10.666667 0 19.669333-2.645333 27.050667-7.936s12.928-13.056 16.682667-23.338667a39.552 39.552 0 0 1 5.888-11.776c2.346667-3.072 6.101333-4.565333 11.264-4.565333 4.394667 0 8.192 1.536 11.349333 4.608a15.402667 15.402667 0 0 1 4.778667 11.52zM766.72 604.16v64.213333l72.874667-75.989333c3.498667-3.669333 6.485333-6.4 8.96-8.106667a16.597333 16.597333 0 0 1 9.813333-2.645333c5.290667 0 9.6 1.536 12.885333 4.693333a15.189333 15.189333 0 0 1 4.949334 11.434667c0 5.418667-2.773333 10.794667-8.362667 16.128l-45.141333 42.752 52.010666 74.496c3.669333 5.12 6.4 9.685333 8.234667 13.568 1.834667 3.84 2.773333 7.637333 2.773333 11.306667a14.08 14.08 0 0 1-4.821333 10.624 18.346667 18.346667 0 0 1-13.056 4.48 22.016 22.016 0 0 1-12.629333-3.285334 28.458667 28.458667 0 0 1-8.234667-8.832c-2.261333-3.669333-4.266667-6.997333-6.016-9.984l-43.861333-67.498666-30.378667 29.098666v37.888c0 7.68-1.749333 13.354667-5.248 17.066667a17.749333 17.749333 0 0 1-13.525333 5.546667 18.133333 18.133333 0 0 1-9.130667-2.474667 17.493333 17.493333 0 0 1-6.741333-6.784 22.016 22.016 0 0 1-2.133334-8.106667 178.261333 178.261333 0 0 1-0.341333-13.354666v-136.277334c0-7.509333 1.621333-13.098667 4.906667-16.853333a16.981333 16.981333 0 0 1 13.44-5.632c5.589333 0 10.112 1.834667 13.568 5.546667 3.456 3.712 5.205333 9.386667 5.205333 16.938666z" fill="#0047AB" p-id="14448"></path><path d="M261.12 217.472l56.490667 51.626667v-151.466667c0-14.72 9.813333-24.533333 24.533333-24.533333 14.762667 0 24.576 9.813333 24.576 24.533333v156.330667L423.253333 217.472c9.813333-9.813333 24.576-9.813333 34.389334 0 9.813333 9.813333 9.813333 24.576 0 34.389333L364.288 345.216a26.538667 26.538667 0 0 1-17.194667 7.381333 26.538667 26.538667 0 0 1-17.194666-7.381333L226.688 251.861333c-7.338667-7.338667-7.338667-22.101333 0-31.914666 9.813333-9.813333 24.576-9.813333 34.432-2.474667z" fill="#0047AB" p-id="14449"></path><path d="M559.786667 224.768L616.277333 173.184 616.277333 227.285333c0 14.72 9.813333 24.362667 24.576 24.362667 14.72 0 24.533333-9.642667 24.533334-24.362667L665.386667 168.277333 721.92 224.768a23.765333 23.765333 0 0 0 34.389333 0c9.813333-9.813333 9.813333-24.533333 0-34.389333l-93.354666-93.312a26.538667 26.538667 0 0 0-17.194667-7.381334 26.538667 26.538667 0 0 0-17.194667 7.381334L525.397333 190.378667c-7.381333 7.381333-7.381333 22.144 0 31.957333a26.325333 26.325333 0 0 0 34.389334 2.432z" fill="#0047AB" p-id="14450"></path><path d="M617.386667 349.184m0-24.362667l0-24.405333q0-24.362667 24.362666-24.362667l0.042667 0q24.362667 0 24.362667 24.362667l0 24.405333q0 24.362667-24.362667 24.362667l-0.042667 0q-24.362667 0-24.362666-24.362667Z" fill="#0047AB" p-id="14451"></path><path d="M928 887.04c0-18.090667-14.677333-27.904-32.853333-27.904H117.589333c-18.133333 0-32.810667 9.813333-32.810666 27.904 0 18.133333 14.677333 27.946667 32.810666 27.946667h777.642667c18.090667 0 32.810667-9.813333 32.810667-27.946667zM464.981333 460.373333c0-18.090667-14.677333-27.904-32.768-27.904H117.546667c-18.133333 0-32.810667 9.813333-32.810667 27.904 0 18.133333 14.677333 27.946667 32.810667 27.946667h314.666666c18.090667 0 32.768-9.813333 32.768-27.946667zM928 460.373333c0-18.090667-14.677333-27.904-32.853333-27.904h-314.624c-18.090667 0-32.768 9.813333-32.768 27.904 0 18.133333 14.677333 27.946667 32.768 27.946667h314.666666c18.090667 0 32.810667-9.813333 32.810667-27.946667z" fill="#027AFF" p-id="14452"></path></svg>